<svg width="378" xmlns="http://www.w3.org/2000/svg" height="121" fill="none"><g data-testid="Board"><defs><clipPath id="a" class="frame-clip frame-clip-def"><rect rx="0" ry="0" width="378" height="121"/></clipPath></defs><g clip-path="url(#a)"><g class="fills"><rect width="378" height="121" class="frame-background" style="fill: rgb(255, 255, 255); fill-opacity: 1;" ry="0" rx="0"/></g><g class="frame-children"><g data-testid="logo-nobackground" class="fl-svgdocument" style="fill: rgb(0, 0, 0);"><path d="M209.532 83.216v17.281h-4.32V82.599h-11.726v17.898h-4.321V82.599h-11.726v17.898h-4.32V78.896h4.32v3.086l3.086-3.086h8.64c2.51 0 3.93 1.049 4.259 3.147l3.147-3.147h8.641c1.193 0 2.211.422 3.055 1.265.843.843 1.265 1.862 1.265 3.055Zm12.96-12.961v4.938h-4.32v-4.938h4.32Zm0 7.406v22.836h-4.32V81.982l4.32-4.321Zm30.242 5.555v17.281h-4.321V82.599h-12.96v17.898h-4.32V78.896h4.32v3.086l3.086-3.086h9.874c1.194 0 2.212.422 3.055 1.265.844.843 1.266 1.862 1.266 3.055Zm30.241-18.515v35.796h-4.321v-3.086l-3.085 3.086h-9.875c-1.193 0-2.212-.422-3.055-1.266-.843-.843-1.265-1.861-1.265-3.055v-12.96c0-1.193.422-2.212 1.265-3.055s1.862-1.265 3.055-1.265h12.96v-9.875l4.321-4.32Zm-17.281 32.093h12.96V79.513l-3.085 3.086h-9.875v14.195Zm29.933-17.898h14.194l-3.764 3.703h-10.43v4.937h8.64c1.193 0 2.211.422 3.055 1.265.843.844 1.265 1.862 1.265 3.055v4.32c0 1.194-.422 2.212-1.265 3.055-.844.844-1.862 1.266-3.055 1.266h-12.961v-3.703h12.961v-5.555h-8.64c-1.194 0-2.212-.422-3.055-1.265-.844-.844-1.266-1.862-1.266-3.055v-3.703c0-1.193.422-2.212 1.266-3.055.843-.843 1.861-1.265 3.055-1.265ZM135.962 33.049v29.543h-4.823V33.049h4.823ZM166.71 45.71v16.882h-4.22V45.107h-12.661v17.485h-4.221V41.49h4.221v3.014l3.014-3.014h9.647c1.165 0 2.16.412 2.984 1.236.824.824 1.236 1.819 1.236 2.984Zm13.264-4.22h18.69l-3.617 3.617h-15.073v13.867h12.661V46.916h4.22v24.116c0 1.166-.412 2.161-1.236 2.985-.824.824-1.818 1.236-2.984 1.236h-17.484l3.617-3.618h13.867V59.517l-3.617 3.075h-9.044c-1.166 0-2.16-.412-2.984-1.236-.824-.824-1.236-1.819-1.236-2.985V45.71c0-1.165.412-2.16 1.236-2.984.824-.824 1.818-1.236 2.984-1.236Zm46.725 17.484v3.618h-16.881c-1.166 0-2.161-.412-2.985-1.236-.824-.824-1.236-1.819-1.236-2.985V45.71c0-1.165.412-2.16 1.236-2.984.824-.824 1.819-1.236 2.985-1.236h12.661c1.165 0 2.16.412 2.984 1.236.824.824 1.236 1.819 1.236 2.984v4.221l-4.22 4.22h-12.058l3.617-3.617h8.441v-5.427h-12.661v13.867h16.881Zm27.734-13.264v16.882h-4.221V45.107h-12.661v17.485h-4.22V41.49h4.22v3.014l3.015-3.014h9.646c1.166 0 2.161.412 2.985 1.236.824.824 1.236 1.819 1.236 2.984Zm12.661-12.661v4.824h-4.221v-4.824h4.221Zm0 7.235v22.308h-4.221V44.504l4.221-4.22Zm29.542 5.426v12.661c0 1.166-.412 2.161-1.236 2.985-.824.824-1.819 1.236-2.984 1.236h-12.661c-1.166 0-2.161-.412-2.985-1.236-.824-.824-1.236-1.819-1.236-2.985V45.71c0-1.165.412-2.16 1.236-2.984.824-.824 1.819-1.236 2.985-1.236h12.661c1.165 0 2.16.412 2.984 1.236.824.824 1.236 1.819 1.236 2.984Zm-16.881 13.264h12.661V45.107h-12.661v13.867Zm46.423-17.484v21.102h-4.22v-3.015l-3.015 3.015h-9.646c-1.166 0-2.16-.412-2.984-1.236-.824-.824-1.236-1.819-1.236-2.985V41.49h4.22v17.484h12.661V41.49h4.22Zm11.757 0h13.867l-3.678 3.617h-10.189v4.824h8.441c1.165 0 2.16.412 2.984 1.236.824.824 1.236 1.818 1.236 2.984v4.22c0 1.166-.412 2.161-1.236 2.985-.824.824-1.819 1.236-2.984 1.236h-12.661v-3.618h12.661v-5.426h-8.441c-1.166 0-2.16-.412-2.984-1.236-.824-.824-1.236-1.819-1.236-2.984V45.71c0-1.165.412-2.16 1.236-2.984.824-.824 1.818-1.236 2.984-1.236Z" text-anchor="middle" font-size="100" letter-spacing="0" font-family="Iceland" font-weight="400" style="overflow: hidden;" class="fills" data-testid="svg-path"/><g data-testid="svg-g" style="fill: rgb(0, 0, 0);"><path d="M105.462 75.376H86.324l9.975-28.847L63.232 86.77h19.139l-9.975 28.847Z" style="overflow: hidden; fill: rgb(240, 230, 98);" class="fills" data-testid="svg-polygon"/><ellipse cx="54.885" cy="41.912" rx="30.41" ry="32.689" style="overflow: hidden; fill: rgb(98, 218, 240);" class="fills" data-testid="svg-circle"/><ellipse cx="92.44" cy="54.64" rx="20.694" ry="22.243" style="overflow: hidden; fill: rgb(98, 218, 240);" class="fills" data-testid="svg-circle"/><rect rx="0" ry="0" x="81.67" y="54.467" transform="rotate(23.005 89.122 70.191) skewX(.005)" width="14.899" height="31.479" style="overflow: hidden; fill: rgb(240, 230, 98);" class="fills" data-testid="svg-rect"/><path d="M99.63 29.162c-2.798 0-5.549.488-8.144 1.419C86.912 15.8 73.085 5.137 56.997 5.137c-19.903 0-36.098 16.194-36.098 36.099 0 19.906 16.195 36.101 36.099 36.101h8.336L55.76 98.065l13.53-1.848-5.536 11.125a5.496 5.496 0 0 0-.713 2.713 5.538 5.538 0 0 0 10.64 2.153l14.822-29.779-14.242 1.946 8.36-18.096H56.997c-13.808 0-25.041-11.234-25.041-25.043 0-13.808 11.233-25.041 25.041-25.041 13.15 0 24.123 10.269 24.981 23.379l.722 11.098 8.412-7.279a13.028 13.028 0 0 1 8.517-3.175c7.185 0 13.03 5.845 13.03 13.029 0 7.185-5.847 13.031-13.03 13.031h-.85l-4.917 11.057h5.767c13.28 0 24.086-10.807 24.086-24.088.002-13.28-10.804-24.085-24.085-24.085Z" style="overflow: hidden;" class="fills" data-testid="svg-path"/><rect rx="0" ry="0" x="87.99" y="43.824" transform="rotate(80.997 92.173 55.932) skewX(-.004)" width="8.37" height="24.211" style="overflow: hidden; fill: rgb(98, 218, 240);" class="fills" data-testid="svg-rect"/></g></g></g></g></g></svg>