<svg width="153.028" xmlns="http://www.w3.org/2000/svg" height="164.435" fill="none"><g data-testid="svg-g" style="fill: rgb(0, 0, 0);"><path d="M125.86 104.541H97.376l14.846-42.935-49.216 59.895h28.487l-14.847 42.934Z" style="overflow: hidden; fill: rgb(240, 230, 98);" class="fills" data-testid="svg-polygon"/><ellipse cx="50.584" cy="54.734" rx="45.261" ry="48.654" style="overflow: hidden; fill: rgb(98, 218, 240);" class="fills" data-testid="svg-circle"/><ellipse cx="106.479" cy="73.678" rx="30.8" ry="33.107" style="overflow: hidden; fill: rgb(98, 218, 240);" class="fills" data-testid="svg-circle"/><rect rx="0" ry="0" x="90.449" y="73.422" transform="rotate(23.005 101.54 96.827) skewX(.005)" width="22.175" height="46.853" style="overflow: hidden; fill: rgb(240, 230, 98);" class="fills" data-testid="svg-rect"/><path d="M117.181 35.758c-4.165 0-8.26.727-12.121 2.111C98.252 15.87 77.671 0 53.726 0 24.104 0 0 24.102 0 53.728c0 29.628 24.104 53.732 53.728 53.732h12.406l-14.249 30.851 20.138-2.751-8.239 16.559a8.184 8.184 0 0 0-1.062 4.038c0 4.55 3.69 8.24 8.244 8.24a8.233 8.233 0 0 0 7.593-5.036l22.06-44.323-21.198 2.897 12.443-26.933H53.726c-20.551 0-37.27-16.721-37.27-37.274 0-20.551 16.719-37.27 37.27-37.27 19.572 0 35.904 15.285 37.181 34.797l1.076 16.518 12.52-10.834a19.386 19.386 0 0 1 12.676-4.725c10.693 0 19.393 8.698 19.393 19.391C136.572 82.3 127.87 91 117.179 91h-1.266l-7.317 16.458h8.583c19.766 0 35.849-16.085 35.849-35.853.002-19.766-16.081-35.847-35.847-35.847Z" style="overflow: hidden;" class="fills" data-testid="svg-path"/><rect rx="0" ry="0" x="99.856" y="57.581" transform="rotate(80.997 106.082 75.602) skewX(-.004)" width="12.458" height="36.035" style="overflow: hidden; fill: rgb(98, 218, 240);" class="fills" data-testid="svg-rect"/></g></svg>